<svg width="655.36" height="655.36" clip-rule="evenodd" fill-rule="evenodd" image-rendering="optimizeQuality" shape-rendering="geometricPrecision" text-rendering="geometricPrecision" version="1.1" viewBox="0 0 6.827 6.827" xmlns="http://www.w3.org/2000/svg">
 <defs>
  <style>.fil0{fill:none}.fil1{fill:#e0e0e0;fill-rule:nonzero}</style>
 </defs>
 <path class="fil0" d="M0 0h6.827v6.827H0z"/>
 <path class="fil0" d="M.853.853h5.12v5.12H.853z"/>
 <path class="fil1" d="M3.076 5.646a1.85 1.85 0 0 1-.195-.051l-.066.203c.072.023.144.042.217.057l.044-.209zm2.19-1.275-.003.01-.004.01-.003.009-.003.01-.003.009-.004.01-.003.009-.004.01-.003.009-.004.009-.003.01-.004.008-.003.01-.004.009-.004.009.198.081.004-.01.004-.01.004-.01.004-.01.004-.011.004-.01.004-.011.003-.01.004-.01.004-.011.004-.01.003-.011.004-.011.003-.01.004-.011-.203-.066zm-.138.323-.003.005-.004.008-.005.009-.005.008-.005.009-.005.008-.004.009-.005.008-.005.008-.005.009-.005.008-.006.008-.005.008-.005.009-.005.008-.005.008-.006.008-.005.008-.005.008-.006.008-.005.008-.002.002.176.122.001-.003.007-.009.006-.009.006-.009.006-.009.005-.009.006-.009.006-.009.006-.01.006-.008.005-.01.006-.009.006-.009.005-.01.006-.009.005-.009.005-.01.006-.009.005-.01.005-.009.006-.01.002-.004-.187-.102zm-.229.332-.005.006-.006.007-.007.007-.006.007-.006.007-.007.008-.006.007-.007.007-.006.007-.007.007-.006.006-.007.007-.007.007-.007.007-.006.007-.007.007-.007.006-.007.007-.007.007-.006.006-.007.007-.003.002.146.156.003-.003.008-.007.007-.008.008-.007.008-.007.007-.008.008-.007.007-.008.008-.008.007-.007.007-.008.008-.007.007-.008.007-.008.008-.008.007-.008.007-.008.007-.008.007-.008.007-.008.007-.008.005-.005-.16-.14zm-.294.276-.004.003-.008.006-.007.005-.008.006-.008.006-.007.005-.008.006-.008.005-.008.006-.008.005-.008.005-.007.006-.008.005-.008.005-.008.005-.008.006-.008.005-.008.005-.009.005-.008.005-.008.005-.005.003.11.183.006-.004.009-.005.009-.006.009-.005.009-.006.009-.006.009-.005.009-.006.008-.006.01-.006.008-.006.009-.006.009-.006.008-.006.009-.006.009-.006.008-.006.009-.007.008-.006.009-.006.008-.006.004-.003-.128-.171zm-.346.208h-.001l-.009.005-.009.004-.008.003-.009.004-.009.004-.009.004-.008.004-.01.003-.008.004-.009.004-.009.003-.009.004-.009.003-.009.004-.009.003-.009.003-.009.004-.009.003-.009.003-.009.003-.008.003.069.202.009-.003.01-.004.01-.003.01-.004.01-.004.01-.003.01-.004.01-.004.01-.004.01-.004.01-.004.01-.004.01-.004.01-.004.01-.004.009-.004.01-.004.01-.005.01-.004.009-.004.01-.005h.001l-.09-.194zm-.381.13h-.002l-.01.002-.009.002-.01.002-.009.002-.01.002-.009.002-.01.002-.009.002-.01.001-.01.002-.009.002-.01.001-.009.002-.01.001-.01.002h-.009l-.01.002-.01.001-.009.002h-.01l-.005.002.024.212.006-.001.011-.002h.01l.012-.002.01-.002.011-.001.01-.002.012-.002.01-.001.011-.002.01-.002.011-.002.011-.002.01-.001.011-.002.011-.003.01-.002.011-.002.01-.002.011-.002.01-.003h.002l-.046-.208zm-.4.046h-.07l-.01-.001h-.01l-.01-.001H3.36l-.002-.001h-.016l-.002-.001H3.327l-.002-.001h-.012l-.002-.001H3.302L3.3 5.678h-.01l-.002-.001H3.28l-.002-.001h-.002l-.022.212h.008l.002.001H3.273l.002.001H3.286l.002.001H3.299l.002.001h.011l.002.001H3.327l.002.001h.015l.002.001H3.357l.011.001h.011l.011.001h.033l.012.001H3.478v-.213zM3.322 1.9a1.89 1.89 0 0 0-1.133.485 1.893 1.893 0 0 0 .691 3.21l-.065.202a2.105 2.105 0 0 1-1.46-2.11c.03-.582.292-1.097.692-1.46a2.103 2.103 0 0 1 1.198-.534l.142.142-.065.065z" fill="#e0e0e0"/>
 <path d="m2.964.959.8.8.076.076-.076.075-.8.801-.151-.15.725-.726-.725-.726z" fill="#66bb6a" fill-rule="nonzero"/>
</svg>
