<?xml version="1.0" encoding="utf-8"?>
<!-- Generator: Adobe Illustrator 21.1.0, SVG Export Plug-In . SVG Version: 6.00 Build 0)  -->
<svg version="1.1" id="Icon_Set" xmlns="http://www.w3.org/2000/svg" xmlns:xlink="http://www.w3.org/1999/xlink" x="0px" y="0px"
	 viewBox="0 0 512 512" style="enable-background:new 0 0 512 512;" xml:space="preserve">
<style type="text/css">
	.st0{fill:#FFFFFF;}
	.st1{fill:#7DAC51;}
	.st2{fill:#5B7C31;}
	.st3{fill:#463218;}
	.st4{fill:#FEFE71;}
	.st5{fill:#D6CD1E;}
	.st6{fill:#E56823;}
	.st7{fill:#FE8E46;}
	.st8{fill:none;stroke:#FFFFFF;stroke-width:10;stroke-miterlimit:10;}
	.st9{fill:none;stroke:#463218;stroke-width:14;stroke-linecap:round;stroke-linejoin:round;stroke-miterlimit:10;}
	.st10{fill:#FE8D47;}
	.st11{fill:#E56724;}
</style>
<g id="SEEDLING">
	<g>
		<g>
			<path class="st4" d="M339.2,405.9c1.1-4,1.7-8.1,1.7-12.4c0-25.2-20.5-45.7-45.7-45.7c-0.1,0-0.1,0-0.2,0
				c-10.5-19.4-31-32.6-54.6-32.6c-31.1,0-56.8,22.9-61.3,52.7c-1.4-0.2-2.9-0.3-4.4-0.3c-19.8,0-35.8,16-35.8,35.8
				c0,0.8,0,1.7,0.1,2.5H339.2z"/>
		</g>
	</g>
	<g>
		<g>
			<path class="st5" d="M231.4,367.6c1.5,0,2.9,0.1,4.4,0.3c3-20.1,15.6-37,33-45.9c-8.5-4.4-18.1-6.8-28.3-6.8
				c-31.1,0-56.8,22.9-61.3,52.7c-1.4-0.2-2.9-0.3-4.4-0.3c-19.8,0-35.8,16-35.8,35.8c0,0.8,0,1.7,0.1,2.5h56.5
				c-0.1-0.8-0.1-1.7-0.1-2.5C195.6,383.6,211.6,367.6,231.4,367.6z"/>
		</g>
	</g>
	<g>
		<g>
			<path class="st3" d="M339.2,412.9H139.2c-3.7,0-6.7-2.8-7-6.5c-0.1-1.1-0.1-2.1-0.1-3c0-23.1,18.5-42,41.4-42.7
				c3.4-13.7,11-26.2,21.8-35.6c12.5-10.9,28.6-16.9,45.2-16.9c24,0,46.2,12.4,58.7,32.7c27.2,2,48.8,24.8,48.8,52.6
				c0,4.8-0.7,9.7-2,14.3C345.1,410.8,342.4,412.9,339.2,412.9z M146.4,398.9h187.1c0.3-1.8,0.4-3.6,0.4-5.4
				c0-21.3-17.3-38.7-38.6-38.7c-0.1,0-0.2,0-0.3,0c-2.6,0-4.9-1.4-6.2-3.7c-9.6-17.8-28.2-28.9-48.4-28.9
				c-27,0-50.4,20.1-54.4,46.8c-0.6,3.7-4,6.4-7.8,5.9c-1.2-0.1-2.4-0.2-3.5-0.2C160.5,374.6,148.6,385.1,146.4,398.9z"/>
		</g>
	</g>
	<g>
		<g>
			<g>
				<path class="st7" d="M362.4,228.1C362.4,228.1,362.5,228.1,362.4,228.1c13.5-13.2,24.3-43.9,25-69.2c1-36.2,14.4-51.5,14.4-51.5
					S320,97.1,270.6,134.9c-0.1,0.1-0.3,0.2-0.4,0.3c-0.5,0.4-0.9,0.7-1.4,1.1c0,0,0,0,0,0c-2,1.6-4,3.4-5.9,5.3
					c-25.5,26.1-25.1,67.9,0.9,93.4s67.9,25.1,93.4-0.9C359.1,232.2,360.8,230.2,362.4,228.1z"/>
			</g>
		</g>
		<g>
			<g>
				<path class="st6" d="M362.4,228.1C362.4,228.1,362.5,228.1,362.4,228.1c13.5-13.2,24.3-43.9,25-69.2c1-36.2,14.4-51.5,14.4-51.5
					s-9.7-1.2-24.4-1.3c-4.1,7.3-10.2,22.1-10.9,46.1c-0.7,25.3-11.5,56-25,69.1c0,0,0,0,0,0c-1.6,2-3.3,4-5.1,5.9
					c-15.4,15.7-36.6,22.1-56.8,19.1c25.1,13.1,56.8,8.9,77.7-12.4C359.1,232.2,360.8,230.2,362.4,228.1z"/>
			</g>
		</g>
		<g>
			<g>
				<path class="st3" d="M310.1,260.9c-18.5,0-36.9-6.9-51.1-20.8c-13.9-13.7-21.7-31.9-21.9-51.5c-0.2-19.5,7.2-37.9,20.9-51.9
					c1.9-1.9,3.9-3.8,6.1-5.5c0.1-0.1,0.2-0.2,0.4-0.3c0.4-0.3,0.7-0.6,1.1-0.9l0.5-0.4c0.1-0.1,0.2-0.2,0.4-0.3
					c21.5-16.5,51.1-26.3,87.8-29.3c27.1-2.2,47.7,0.4,48.6,0.5c2.6,0.3,4.7,2,5.7,4.5c0.9,2.4,0.4,5.2-1.3,7.1
					c-0.1,0.1-11.8,14.4-12.7,47.1c-0.7,27.7-12.2,59.2-26.8,73.7c-1.7,2.2-3.5,4.3-5.3,6.1C348,253.5,329,260.9,310.1,260.9z
					 M273.4,141.5c-0.1,0.1-0.2,0.2-0.3,0.3c-1.9,1.6-3.6,3.1-5.2,4.7c-11,11.3-17,26.2-16.9,42s6.5,30.6,17.7,41.6
					c11.5,11.2,26.4,16.9,41.3,16.9c15.3,0,30.7-5.9,42.2-17.7c1.6-1.6,3.1-3.4,4.6-5.3c0.2-0.3,0.4-0.5,0.7-0.8
					c0.1-0.1,0.1-0.1,0.2-0.2c11.9-11.7,22.1-40.4,22.7-64.2c0.6-21.5,5.4-36.3,9.7-45.3c-23.4-1.2-79.2-0.8-115.3,26.9L274,141
					C273.8,141.2,273.6,141.3,273.4,141.5z M268.7,136.3L268.7,136.3L268.7,136.3z"/>
			</g>
		</g>
		<g>
			<g>
				<path class="st3" d="M263.8,242c-0.9,0-1.9-0.2-2.8-0.6c-3.5-1.6-5.1-5.7-3.6-9.2c22.3-50.5,90.3-93.7,93.2-95.5
					c3.3-2.1,7.6-1.1,9.6,2.2c2.1,3.3,1.1,7.6-2.2,9.7c-0.2,0.1-17.2,10.8-36.5,27.3c-25.2,21.5-42.9,42.9-51.4,62
					C269.1,240.5,266.5,242,263.8,242z"/>
			</g>
		</g>
		<g>
			<g>
				<path class="st3" d="M283.2,210.3c-0.2,0-0.4,0-0.6,0c-3.9-0.3-6.7-3.7-6.4-7.6l4.1-46.6c0.3-3.9,3.7-6.7,7.6-6.4
					c3.9,0.3,6.7,3.7,6.4,7.6l-4.1,46.6C289.8,207.5,286.8,210.3,283.2,210.3z"/>
			</g>
		</g>
		<g>
			<g>
				<path class="st3" d="M348.6,186.6c-0.5,0-1-0.1-1.5-0.2l-33.1-7.1c-3.8-0.8-6.2-4.5-5.4-8.3c0.8-3.8,4.5-6.2,8.3-5.4l33.1,7.1
					c3.8,0.8,6.2,4.5,5.4,8.3C354.8,184.4,351.9,186.6,348.6,186.6z"/>
			</g>
		</g>
		<g>
			<g>
				<path class="st0" d="M336.9,233.8l-6.7-7.4c0.9-0.8,1.8-1.7,2.7-2.6c1.6-1.7,3.2-3.5,4.8-5.5l7.9,6.1c-1.8,2.3-3.6,4.4-5.5,6.4
					C339,231.9,338,232.9,336.9,233.8z"/>
			</g>
		</g>
		<g>
			<g>
				<path class="st0" d="M350.4,218.9l-8-6c3.1-4.2,6.1-9.5,8.8-15.6l9.2,4C357.4,208.1,354,214,350.4,218.9z"/>
			</g>
		</g>
	</g>
	<g>
		<g>
			<g>
				<path class="st7" d="M138.8,263.5C138.7,263.5,138.7,263.5,138.8,263.5c-9.8-9.5-17.6-31.8-18.1-50.2
					c-0.7-26.2-10.5-37.4-10.5-37.4s59.4-7.5,95.2,19.9c0.1,0.1,0.2,0.2,0.3,0.2c0.3,0.3,0.7,0.5,1,0.8c0,0,0,0,0,0
					c1.5,1.2,2.9,2.5,4.2,3.8c18.5,18.9,18.2,49.2-0.7,67.8c-18.9,18.5-49.2,18.2-67.8-0.7C141.1,266.4,139.9,265,138.8,263.5z"/>
			</g>
		</g>
		<g>
			<g>
				<path class="st6" d="M138.8,263.5C138.7,263.5,138.7,263.5,138.8,263.5c-9.8-9.5-17.6-31.8-18.1-50.2
					c-0.7-26.2-10.5-37.4-10.5-37.4s7-0.9,17.7-0.9c2.9,5.3,7.4,16,7.9,33.4c0.5,18.3,8.3,40.6,18.1,50.1c0,0,0,0,0,0
					c1.1,1.5,2.4,2.9,3.7,4.3c11.1,11.4,26.6,16,41.2,13.9c-18.2,9.5-41.2,6.4-56.3-9C141.1,266.4,139.9,265,138.8,263.5z"/>
			</g>
		</g>
		<g>
			<g>
				<path class="st3" d="M176.7,289.2c-14.3,0-28.5-5.5-39.2-16.5c-1.4-1.4-2.7-2.9-4-4.5c-10.9-10.9-19.4-34.2-19.9-54.6
					c-0.6-22.9-8.7-32.9-8.8-33c-1.7-1.9-2.2-4.6-1.3-7.1c0.9-2.4,3.1-4.1,5.7-4.4c2.5-0.3,62.7-7.5,100.4,21.3
					c0.1,0,0.2,0.1,0.3,0.2c0,0,0.1,0.1,0.1,0.1l0.3,0.2c0.3,0.2,0.6,0.4,0.8,0.7c0.1,0.1,0.2,0.2,0.3,0.3c1.6,1.3,3.2,2.7,4.5,4.1
					c21.2,21.6,20.8,56.5-0.8,77.7C204.5,284,190.6,289.2,176.7,289.2z M143.5,258.4C143.5,258.4,143.5,258.4,143.5,258.4
					c0.4,0.3,0.6,0.6,0.8,0.9c1,1.4,2.1,2.6,3.2,3.7c15.8,16.1,41.7,16.4,57.9,0.6c16.1-15.8,16.4-41.7,0.6-57.9
					c-1.1-1.1-2.3-2.2-3.6-3.3c-0.1-0.1-0.2-0.1-0.2-0.2c-0.1-0.1-0.2-0.2-0.4-0.3l-0.5-0.4c0,0-0.1-0.1-0.1-0.1
					c-24.4-18.7-61.5-19.9-79.5-19.2c2.8,6.8,5.6,16.9,6,31C128.1,229.9,135.2,250.1,143.5,258.4z"/>
			</g>
		</g>
		<g>
			<g>
				<path class="st3" d="M210.2,275.5c-2.7,0-5.3-1.6-6.4-4.2c-14.7-33.3-62.5-63.6-63-63.9c-3.3-2.1-4.3-6.4-2.2-9.7
					c2.1-3.3,6.4-4.3,9.7-2.2c0.5,0.3,13.1,8.2,27.7,20.7c20,17,33.6,33.6,40.6,49.4c1.6,3.5,0,7.7-3.6,9.2
					C212.1,275.3,211.2,275.5,210.2,275.5z"/>
			</g>
		</g>
		<g>
			<g>
				<path class="st3" d="M196.2,252.5c-3.6,0-6.6-2.7-7-6.4l-3-33.8c-0.3-3.9,2.5-7.2,6.4-7.6c3.9-0.3,7.2,2.5,7.6,6.4l3,33.8
					c0.3,3.9-2.5,7.2-6.4,7.6C196.6,252.5,196.4,252.5,196.2,252.5z"/>
			</g>
		</g>
		<g>
			<g>
				<path class="st3" d="M148.8,235.3c-3.2,0-6.1-2.2-6.8-5.5c-0.8-3.8,1.6-7.5,5.4-8.3l24-5.1c3.8-0.8,7.5,1.6,8.3,5.4
					c0.8,3.8-1.6,7.5-5.4,8.3l-24,5.1C149.7,235.3,149.2,235.3,148.8,235.3z"/>
			</g>
		</g>
	</g>
	<g>
		<g>
			<path class="st3" d="M241.2,322.2c-3.1,0-5.9-2.1-6.8-5.2c-6.1-23.2-24.6-43.5-24.8-43.7c-2.6-2.8-2.4-7.3,0.4-9.9
				c2.8-2.6,7.3-2.4,9.9,0.4c0.9,0.9,21,23,28,49.6c1,3.7-1.3,7.6-5,8.5C242.3,322.1,241.7,322.2,241.2,322.2z"/>
		</g>
	</g>
	<g>
		<g>
			<path class="st3" d="M247.5,322.6c-3.3,0-6.2-2.3-6.9-5.6c-11.9-59.8,17.4-86.1,18.6-87.2c2.9-2.5,7.3-2.2,9.9,0.7
				c2.5,2.9,2.2,7.3-0.6,9.8c-1.1,1-24.3,22.7-14.1,73.9c0.8,3.8-1.7,7.5-5.5,8.2C248.4,322.5,247.9,322.6,247.5,322.6z"/>
		</g>
	</g>
</g>
</svg>
