<svg xmlns="http://www.w3.org/2000/svg" viewBox="0 0 512 512"><title>Artboard 130</title><g id="Harvester"><circle cx="170.66667" cy="362.66667" r="64" style="fill:#3d180b"/><circle cx="330.66667" cy="352" r="74.66667" style="fill:#3d180b"/><rect x="64" y="256" width="277.33333" height="128" style="fill:#4da900"/><rect x="64" y="298.66667" width="128" height="42.66667" rx="21.33331" ry="21.33331" style="fill:#378900"/><path d="M341.33333,170.66667H64a42.66662,42.66662,0,0,0-42.66663,42.66662v85.33338A21.33334,21.33334,0,0,0,42.66667,320h320Z" style="fill:#216600"/><rect x="277.33333" y="234.66667" width="64" height="42.66667" rx="21.33331" ry="21.33331" style="fill:#215200"/><path d="M256,170.66667H64a42.66662,42.66662,0,0,0-42.66663,42.66662v85.33338A21.33334,21.33334,0,0,0,42.66667,320H277.33333Z" style="fill:#6ec030"/><path d="M85.33333,170.7679A21.3333,21.3333,0,0,0,64,192.10124v21.23209a64.07242,64.07242,0,0,0,64,64h17.78688q.29447,0,.58667-.00781.29256.00782.58667.00781h40.04259a63.85782,63.85782,0,0,0,47.66386,21.33334h15.31264a21.33334,21.33334,0,0,0,0-42.66667H234.66667a21.33351,21.33351,0,0,1-21.33334-21.33333H146.96022q-.29448,0-.58667.00781-.29257-.00781-.58667-.00781H128a21.33352,21.33352,0,0,1-21.33333-21.33334V192.10124A21.33317,21.33317,0,0,0,85.33333,170.7679Z" style="fill:#4da900"/><path d="M125.66612,115.33369l34.25177-22.8345a42.66663,42.66663,0,0,1,23.6672-7.16586h29.74824V234.66667H128a21.33334,21.33334,0,0,1-21.33333-21.33334V150.83451A42.6667,42.6667,0,0,1,125.66612,115.33369Z" style="fill:#6ec030"/><circle cx="245.33333" cy="352" r="74.66667" style="fill:#5b2c06"/><path d="M245.33333,277.33333h-.12691c-.03774.00033-.07534.00033-.11308.00033h-.00388c-.38229.0013-.75914.00521-1.14006.01237A10.56766,10.56766,0,0,0,233.657,288.09017a10.76633,10.76633,0,0,0,10.74709,10.58333l.08362-.00032.84566-.00651a10.72614,10.72614,0,0,0,1.2971-.08822,10.75562,10.75562,0,0,0,1.2902.14941l.841.04655c.13033.00717.2594.012.38887.01433q.22333.02734.44953.04492a52.99615,52.99615,0,0,1,14.78892,3.3317,10.66663,10.66663,0,1,0,7.62473-19.92415q-.41622-.15918-.835-.3138l-.01866-.00684q-.1003-.03711-.20086-.07356l-.03074-.0114-.05514-.02018-.04248-.0153-.06814-.02474-.06154-.02213-.0446-.01628-.05273-.01888-.04126-.015-.08779-.03125-.02547-.00911-.07127-.02539-.03233-.01172-.07991-.02832-.01506-.00521-.09731-.0345-.02128-.00749-.08327-.0293-.0165-.00553c-.06745-.02376-.13865-.0485-.20618-.07194l-.00814-.00293a74.18349,74.18349,0,0,0-12.76619-3.19271l-.00043-.00032-.10927-.01693-.01042-.00163c-.07232-.01139-.146-.02279-.21842-.03385l-.01921-.00293-.09849-.015-.00987-.0013c-.03623-.00553-.07151-.01107-.10776-.01627l-.01844-.00293-.08811-.013-.0256-.0039-.103-.015-.00934-.0013-.09483-.014-.03393-.00488-.07294-.01041-.03357-.00489-.095-.01334-.04319-.00619-.05636-.00814-.05176-.00716-.05047-.00683-.08832-.01237-.04688-.00651-.05839-.00782-.03991-.00553-.21068-.02832-.02754-.00358-.06948-.00912-.01756-.00227c-.07892-.01042-.158-.02051-.237-.03093l-.0033-.00032q-1.80132-.23048-3.62835-.37435c-.17814-.014-.35478-.02377-.53148-.029q-.21936-.0249-.4415-.04134c-.06438-.00423-.132-.00879-.19646-.01269h-.00048q-.18277-.01172-.36579-.02214l-.00226-.00032c-.03542-.002-.07086-.00391-.1063-.00619-.30027-.01692-.60295-.03222-.90417-.04557q-.19638-.00732-.39114-.00716a10.68572,10.68572,0,0,0-1.20512.068,10.68544,10.68544,0,0,0-1.59883-.13639c-.06539-.00033-.13172-.00033-.19717-.00033ZM209.877,288.03548a10.61724,10.61724,0,0,0-5.90684,1.79232q-2.22458,1.48291-4.33441,3.11816l-.00213.00163c-.08651.06706-.17322.13477-.25942.20215l-.00613.00456-.19161.15039-.00228.002-.05786.04557-.01768.014c-.05794.04557-.11525.09115-.17305.137l-.01723.01367-.05176.04134-.02389.01888-.15946.1276-.03113.02474-.042.03386-.0364.02929-.04087.03288-.06692.054-.0377.03027-.039.03158-.03786.0306-.04521.03678-.031.02539-.07093.05762-.031.02539-.04865.03971-.029.02344-.0565.04655-.02221.01823c-.02346.0192-.05032.041-.07376.06054l-.02653.02181-.05145.04232-.02838.02344-.0649.05371-.01176.00977-.07723.0638-.02006.01692c-.02157.01758-.04274.03549-.06427.05339l-.01414.01172c-.05381.04492-.11023.0918-.1639.13672l-.00769.00651-.07638.06413-.00728.00618c-.05359.04492-.11214.0944-.16561.13965l-.00765.00651a75.09016,75.09016,0,0,0-9.04606,9.08268q-.15653.188-.303.38086c-.09556.1058-.18963.21452-.28172.32487-.14046.17188-.27707.34017-.416.513q-.22523.28077-.4479.56315c-.04191.05306-.08262.10482-.12441.15821a10.56608,10.56608,0,0,0,1.83407,14.77311,10.76629,10.76629,0,0,0,15.04512-1.72591l.5248-.6556c.0809-.10091.16-.20345.2366-.30632q.1521-.1665.29844-.34082a53.69747,53.69747,0,0,1,11.3376-10.151,10.66742,10.66742,0,0,0-5.92633-19.543Zm-28.26969,47.19564a10.66856,10.66856,0,0,0-10.60311,9.62337c-.08911.93815-.16044,1.87565-.2145,2.82357l-.00055.00977-.006.10612-.00093.01692-.00537.09831-.00125.02311-.00494.0931-.0014.02669-.00448.08724-.00165.03223-.00431.08659-.00145.02929-.00439.09083-.0012.02539-.00452.09635-.00093.02051-.00464.10286-.00065.014c-.00529.11947-.01009.23405-.01483.35384l-.00086.02149-.00364.09407-.00126.0332-.00309.08334-.00131.03613-.00284.07975-.00141.041-.00254.07454-.00145.04395-.00234.07194-.00146.04622-.00218.07031-.00138.0459-.00208.07064-.00134.04688-.002.07031-.00124.04557-.00187.07162-.00116.04524-.00194.0791-.00087.03614-.0022.09538-.00049.02115-.00252.11817,0,.001-.00228.11491-.00065.03549-.00146.08105-.00074.04264-.00122.07357-.00069.04525-.0011.07259-.00063.04557-.00093.06966-.00064.04948-.00081.068-.00053.04883-.00071.06835-.00045.04818-.00061.06966-.00039.0472-.00048.07-.00033.04753-.00041.07194-.00022.04459-.00028.07292-.00017.04492-.00018.07585-.00008.04134-.0001.11621h0l.0001.11719.00008.03906.00018.0778.00019.04785.00026.06966.00024.04785.00039.06934.00035.05111.00046.06575.00043.05241.00057.06445.00051.05339.00065.0638.00059.05274.00077.06445.00068.05371.00085.0638.00075.05241.001.06413.00085.054.001.06153.00094.05534.0011.06054.00107.0573.00112.05631.0012.06022.0012.05632.00131.06022.00168.07357.00206.08626.00167.06868.00167.06348.00138.05339.00179.06477.00138.04981.0019.06608.00148.05078.00206.06706.00144.04687.00222.06934.00152.04687.0023.069.00157.04558.00238.06868.00171.04785.00254.07.00153.041.00287.07584.00148.03809.003.07715.00145.03548.00325.08008.00134.0319.00357.08366.001.02278.00409.0931.00012.00293q.01477.33107.03237.66081l.00055.01042.00541.09961.00076.014.00543.09733.00087.01563.00556.097.00093.01628.00564.0957.001.01726.0059.098.00075.012.00633.10287.00032.00488a74.75731,74.75731,0,0,0,1.18943,9.41243q.05035.26269.113.51986.03424.22119.078.44238l.0364.17644.0026.012q.02814.13525.05681.27083l.00584.02735.011.05176.01758.08235.00808.03744.01233.05729.00986.0459.00515.02343q.05964.2754.12126.54948l.00152.00717.041.18164a10.56573,10.56573,0,0,0,10.27875,8.16048,10.75017,10.75017,0,0,0,10.49343-13.02409l-.17666-.81706c-.02736-.1263-.057-.25228-.08856-.37663-.022-.14778-.04712-.29524-.07548-.44336A53.90784,53.90784,0,0,1,192,352q0-2.58008.23916-5.099a10.6666,10.6666,0,0,0-9.61729-11.62174q-.51117-.04834-1.01459-.04818Zm18.827,51.70964a10.66683,10.66683,0,0,0-7.49067,18.26106c.0482.04753.09542.09375.14374.14128l.01359.01335.06382.06217.012.01172.07652.07487h.00014l.07369.07161.01412.01367.06974.06771.00411.00391.07812.07552.00542.00521.07021.06771.0129.01237.07116.06836.00395.00358.07827.07519.00637.00586.06762.06478.0165.01563c.049.04687.10281.098.1519.14453l.0083.00781.069.06543.01194.01107c.05089.04817.10329.09765.1543.1455l.00991.00912.06722.06315.01349.01269c.05108.04786.10115.09441.15238.14226l.01577.01465.06268.05826.01487.01368c.05131.04785.1021.09472.15353.14225l.01326.012.06564.06055.01346.01237c.05152.04753.1022.09408.15385.14128l.01532.014.064.05827.01471.01335.07627.06966.00877.00781.06626.06022.02041.01856.06183.056.01451.013.07753.07.0068.00618.068.06087.02045.01856.06364.057.01237.01107.07694.069.014.01237.06152.05469.02214.01986.06034.05371.01662.01464.07581.06706.01521.01367.06019.05306.02313.02051.06447.05664.01139.01009.075.06576.02213.01953.05512.04818.02406.02083.062.05436.015.013.07328.06381.02613.02246.04777.04166.03171.02735.05782.05013.02718.02343.06118.05274.02891.02474.04934.04264.0274.02344.067.05729.024.02051.05847.05013.02783.02376.04822.041.03039.02571.0707.06022.02529.02149.04913.04134.03673.03125.03951.0332.03481.02963.0687.05761.03245.02735.0436.03646.03715.03125.03628.03027.04057.03385.0382.0319.06887.0573.03176.02669.04608.03808.02375.01986c.05369.04427.10719.08854.161.13281l.02459.02051.04956.04069.01823.015.16677.13671.0225.01823.0516.042.01554.01269c.05711.04655.11387.09277.17112.139l.0198.01595.05444.04394.00517.00424c.061.04915.12219.09863.18339.14746l.014.01139q.12375.09912.2478.19759l.01156.00944c.08484.06738.16951.13412.25464.20117l.00028.00033a74.75166,74.75166,0,0,0,10.87687,7.125q.23523.12646.474.23991.18885.11034.38377.21354.59521.30957,1.19706.60905l.03.015.00263.0013c.0591.02963.11751.0586.17669.08757a10.56087,10.56087,0,0,0,14.08222-4.81836,10.76913,10.76913,0,0,0-4.76715-14.37467l-.74667-.37826q-.17318-.08788-.34763-.16862-.19315-.11426-.393-.22168a53.52785,53.52785,0,0,1-12.23639-9.02506,10.63287,10.63287,0,0,0-7.48335-3.06608Zm71.40079,12.66829a10.68406,10.68406,0,0,0-4.37077.93587l-.7635.3418q-.17628.07861-.3479.16308-.21091.07814-.42054.166a52.909,52.909,0,0,1-14.669,3.79362,10.66653,10.66653,0,1,0,2.33317,21.20508l.011-.0013q.11767-.0127.23523-.026l.017-.00195.07664-.00879h.00043c.05282-.00618.10506-.01237.15786-.01823l.01414-.002.07059-.00814.02936-.00358c.07166-.00846.14276-.01693.21436-.02571l.03316-.00391.06413-.00781.03231-.00391.1144-.01432.03458-.00423.06087-.00782.03921-.00488.06049-.00749.04939-.00651.0892-.01139.04752-.00619.05375-.00716.05158-.00651.07385-.00976.06413-.00847.05106-.00683.05184-.00716.04948-.00651.07072-.00977.06081-.00814.06212-.00879.04657-.00618.05778-.00814.04451-.00618.09219-.013.04115-.00586.06364-.00911.04191-.00586.08287-.012.03229-.00456.08327-.012.03766-.00554.07261-.01074.03192-.00488.09835-.01465.031-.00456.07284-.01107.03715-.00553.0768-.01172.02822-.00423.097-.015.03409-.0052.07258-.01107.03255-.00521.10089-.016.01853-.00293.08523-.01335.03279-.0052.0846-.01368.018-.00293.10244-.01627.02737-.00456.08038-.013.02822-.00488.10357-.01693.00371-.00065.1003-.0166.02651-.00456.08673-.01465.01939-.00325c.03363-.00554.07151-.012.10512-.01791l.01756-.00293c.02879-.00488.05839-.00976.08718-.015l.02663-.00456.209-.03613.02548-.00456.08245-.01465.02468-.00423.10177-.01823.02108-.00358c.02872-.00521.05672-.01042.08545-.0153l.02691-.00488.09208-.01693.0118-.00195.10494-.01921.02088-.0039.08679-.01595.02338-.00424.10465-.01953.00614-.0013c.031-.00553.06568-.012.0967-.0179l.02678-.00521.08948-.01693.015-.0026.10346-.01986.0236-.00456.08276-.016.02551-.00488c.06909-.01335.13766-.02669.20669-.04036l.02777-.00554.08164-.01595.02316-.00456.10306-.0205.01671-.00326.08661-.01758.02811-.00553.09363-.01888.00893-.002.1-.02019.03261-.00683.07446-.0153.0291-.00586.09989-.02083.01915-.00391.08248-.01725.03277-.00684.07868-.0166.02388-.00488.09981-.02116.0258-.00554.07809-.01692.02952-.00619.10042-.02148.00932-.00228.09129-.01953.03306-.00749.075-.01628.02716-.00585.09867-.02181.02478-.00554.07955-.01758.02936-.00651.08522-.01888.02141-.00488.09312-.02116.0334-.00749.07048-.016.03377-.00748.09489-.02181.02966-.00684.07052-.01628.0376-.00846.075-.01758.02525-.00586.09515-.02213.03506-.00814.06848-.01628.034-.00781.093-.02213.03154-.00749.06945-.0166.04059-.00977.06421-.0153.03514-.00846.0919-.02214.04-.00976.058-.014.04586-.01139.0665-.01628.05294-.013.0658-.01595.04726-.01172.05324-.01335.04511-.01106.08709-.02181.04694-.01172.04948-.0127.05054-.01269.04988-.0127.0765-.0192.05513-.014.05282-.01367.04167-.01074.0558-.01433.04712-.012.08458-.02181.047-.01237.05264-.01367.04455-.01172.08714-.02279.04565-.012.05581-.01465.04157-.01107.05538-.01465.03533-.00944.10505-.028.03379-.00912.0589-.01595.03456-.00944c.06729-.0179.13522-.03646.20244-.05469l.02832-.00781.06307-.01725.0271-.00749.12827-.03548.01294-.00358.06814-.01888.02248-.00618c.07251-.02019.14524-.04069.21765-.06088l.01422-.0039.07371-.02084.0055-.00162q.11541-.03272.23077-.06576l.0093-.0026q.157-.04493.3137-.09082l.0016-.00033a74.09588,74.09588,0,0,0,7.91923-2.804q.24674-.10351.48548-.21744.20807-.07911.41453-.16667l.1712-.07487.007-.00293q.26373-.11573.52637-.23307l.03552-.016.04163-.01856.09438-.04232.00232-.001c.18963-.08561.37725-.1709.56606-.25782a10.56474,10.56474,0,0,0,5.10856-13.96875,10.77216,10.77216,0,0,0-9.79863-6.28157Zm35.52116-42.14193a10.77844,10.77844,0,0,0-10.39176,7.97168l-.21588.80664q-.05.18653-.093.3737-.07206.2124-.13593.43a52.96267,52.96267,0,0,1-6.30761,13.78321,10.66676,10.66676,0,0,0,17.91386,11.585,74.49353,74.49353,0,0,0,5.73781-10.72656l.00037-.001c.0452-.10417.08968-.20736.13441-.31185l.00057-.0013c.04474-.10449.08836-.20671.13263-.31153l.0011-.0026c.11806-.279.23358-.557.34835-.83789l.00088-.00195a74.10185,74.10185,0,0,0,2.51652-7.19629q.07048-.24268.12913-.48633.0683-.20557.12884-.41537c.05292-.18945.10557-.38085.157-.571l.00057-.00228.028-.10351.00244-.00912.02545-.09505.00893-.0332.0161-.06055.02449-.09245.00336-.01269q.04656-.17579.0923-.35254l.00269-.01009.04573-.17741a10.565,10.565,0,0,0-7.61515-12.7933,10.70652,10.70652,0,0,0-2.69218-.3444Zm-10.43909-54.08789a10.54926,10.54926,0,0,0-6.27565,2.06966,10.76843,10.76843,0,0,0-2.329,14.96387l.49257.67936q.11362.15723.2318.30827.12039.1914.24971.37891a53.04064,53.04064,0,0,1,6.74026,13.58463,10.66671,10.66671,0,0,0,20.2832-6.611q-1.11285-3.3999-2.5364-6.65039l-.00118-.00261c-.04551-.10416-.09055-.20638-.13651-.31022h-.00006c-.046-.10384-.09129-.2054-.13772-.30892l-.00159-.00358c-.031-.069-.06105-.13606-.0922-.20475l-.00061-.0013-.046-.10156-.00071-.00163c-.03127-.069-.06124-.13477-.0927-.20345l-.00272-.00586-.04354-.09505-.00321-.00684c-.03058-.06673-.06116-.13281-.09192-.19922l-.00424-.00911-.04512-.09733-.00045-.001q-.04629-.09962-.093-.19922l-.00535-.01139q-.04662-.09912-.09336-.19824l-.002-.00424-.0437-.09244-.00572-.012c-.03036-.0638-.06238-.13118-.0929-.195l-.006-.0127-.04116-.08594-.0062-.013-.04657-.09668-.001-.002-.04384-.09082-.01105-.02279-.037-.0765-.00852-.01757-.04612-.09473-.00359-.00749-.04176-.08561-.011-.02213-.03984-.08138-.00547-.01107-.04639-.0944-.00813-.01628-.03854-.07812-.01086-.02181-.04122-.08334-.00484-.00976-.04615-.09245-.01029-.02083-.03611-.07227-.013-.026-.04313-.08594-.00236-.00456-.04434-.08821-.01635-.03223-.03079-.06087-.01595-.03158-.04394-.08659-.00849-.0166-.03674-.07226-.01772-.03483-.02777-.054-.01959-.03841-.042-.08171-.01563-.0306-.02995-.05794-.01985-.03874-.02788-.05371-.01845-.0358-.042-.08073-.01984-.03842-.02594-.0498-.02171-.04134-.025-.04785-.03662-.07-.02507-.04785-.02545-.04818-.01908-.03646-.02779-.05241-.01514-.02864-.05153-.09733-.01669-.03158-.02864-.05371-.01606-.03027-.02954-.05534-.00771-.01465-.063-.11751-.01182-.02214-.032-.05957-.01021-.01888q-.05357-.0996-.10753-.19922l-.00714-.013-.0367-.06771-.00248-.00455c-.03847-.07064-.07723-.1416-.11591-.21224l-.00307-.00554a74.66461,74.66461,0,0,0-3.99729-6.48144q-.15186-.22021-.31248-.43034c-.08051-.1263-.16435-.252-.25086-.37565-.03518-.04981-.07084-.09994-.10612-.14942l-.00405-.00553q-.18649-.26172-.37524-.52181l-.01762-.02409-.0297-.041-.05213-.07162-.008-.01074c-.10887-.14941-.21674-.29622-.32666-.44434a10.55526,10.55526,0,0,0-8.45059-4.21712Z" style="fill:#3d180b"/><circle cx="245.33333" cy="352" r="32" style="fill:#fff8c6"/><path d="M481.83073,375.16276,414.16927,307.5026a30.16844,30.16844,0,0,0-21.33333-8.83593H307.5026a30.17,30.17,0,0,0-30.16927,30.16927v67.66015a30.17029,30.17029,0,0,0,30.16927,30.17058H460.4974a30.17081,30.17081,0,0,0,21.33333-51.50391Z" style="fill:#5b2c06"/><path d="M362.66667,328.83653v67.66028a30.16986,30.16986,0,0,0,30.16986,30.16986h67.66028a30.16986,30.16986,0,0,0,30.16986-30.16986v0a30.16985,30.16985,0,0,0-8.83655-21.33331l-67.66024-67.66024a30.16989,30.16989,0,0,0-21.33331-8.83654h0A30.16985,30.16985,0,0,0,362.66667,328.83653Z" style="fill:#3d180b"/><path d="M277.33333,328.83653v67.66028a30.16986,30.16986,0,0,0,30.16986,30.16986h67.66028a30.16986,30.16986,0,0,0,30.16986-30.16986v0a30.16989,30.16989,0,0,0-8.83654-21.33331l-67.66024-67.66024a30.16989,30.16989,0,0,0-21.33331-8.83654h0A30.16986,30.16986,0,0,0,277.33333,328.83653Z" style="fill:#4da900"/><path d="M307.50315,298.66667h-.08262l-.0579.00032H307.346l-.05133.00033-.02489.00032-.04307.00033-.04138.00032-.03194.00033-.03436.00033-.02425.00032-.06938.001-.01331.00032q-.28571.00439-.57017.01433l-.01446.00065-.0399.0013-.05129.002q-.32648.01221-.65094.0319a10.4185,10.4185,0,0,0-9.61275,10.83008,10.918,10.918,0,0,0,10.86548,10.458c.06874,0,.13792-.00065.207-.00195L307.50315,320h0a8.7786,8.7786,0,0,1,6.24854,2.58822l67.65993,67.65983a8.83664,8.83664,0,0,1-6.24809,15.08528h-65.8302a10.66667,10.66667,0,0,0,0,21.33334h65.8302a30.17,30.17,0,0,0,21.33334-51.50326l-.02157-.02148-.11059-.11068-.04041-.04036q-.08947-.08985-.22388-.224l-.04777-.04785-.08439-.08431-.01733-.01726-.11483-.11491-.09595-.096c-.05314-.05306-.1099-.11-.16833-.1683l-.03487-.03483-.09729-.09733-.05233-.05241-.212-.21191-.034-.03386-.09815-.0983-.11743-.11752-.01473-.01465-.08008-.08007-.052-.05209-.22925-.22916-.03507-.03516-.007-.00684-.12508-.12532-.11507-.11491-.01709-.01725-.12008-.11979-.01209-.01237-.08178-.08171-.1825-.18262-.23844-.23828-.02588-.02572-.05213-.0524-.08-.07976-.05249-.05273q-.10443-.10449-.21183-.21159l-.09062-.09082-.04151-.04134-.12988-.12988-.00228-.00228-.02673-.0267-.10543-.10546-.13122-.13119-.13306-.13314-.04976-.0498c-.07089-.071-.142-.14193-.21456-.21452l-.06832-.06836-.0638-.0638-.0328-.03288-.09937-.09928-.09733-.09733c-.34688-.347-.7122-.71224-1.092-1.09213l-.03589-.0358c-.03275-.03256-.06327-.06315-.09627-.09636l-.18042-.18034-.08386-.08365-.21423-.21452-.18225-.182-.056-.056c-.19865-.19889-.39873-.39876-.60474-.60482l-.05375-.05371-.07841-.07845-.09151-.09147-.04061-.04069-.0022-.00228q-.5766-.57666-1.18717-1.18717l-.06527-.06511-.06686-.067-.35774-.35775-.0387-.03874-.10522-.10514q-.07941-.07911-.1591-.15886l-.08338-.08365-.04878-.04851-.09831-.0983-.03381-.03386-.20093-.20117q-.1629-.1626-.32768-.32747l-.08854-.08855-.17574-.17578-.08053-.0804-.05163-.05176h0l-.13216-.13216-.02356-.02344c-.16818-.16829-.334-.33431-.505-.50521l-.07593-.07584-.05619-.05632-.105-.10482-.02718-.02734-.244-.24381-.0203-.02051-.02845-.02832c-.166-.166-.33174-.33171-.50016-.50033l-.00252-.00228c-2.7605-2.76074-5.84819-5.8483-9.11577-9.11588h0c-3.96447-3.96452-8.19327-8.193-12.422-12.42188h0c-4.22876-4.22884-8.45756-8.45735-12.422-12.42187h0c-3.37407-3.374-6.55432-6.55436-9.38257-9.38249l-.06537-.06543-.06679-.06673-.09784-.098-.0343-.03418-.02033-.02051-.244-.24381-.02719-.02735-.105-.10482-.05621-.05631-.076-.07585-.505-.50521-.02358-.02343-.1838-.18392-.0805-.08041-.17577-.17578-.08854-.08854-.32765-.32747-.20093-.20117-.03386-.03386-.0983-.09831-.04877-.0485-.08337-.08366-.15912-.15885c-.0353-.03548-.07-.07031-.10519-.10515l-.03871-.03873-.35773-.35775-.06687-.06706-.06529-.0651-1.18716-1.18718-.00217-.00227-.04063-.04069-.09153-.09148-.07839-.07845-.05376-.05371-.60473-.60481-.056-.056-.18221-.182q-.10794-.10791-.21424-.21452l-.08388-.08366c-.05937-.05957-.12178-.12174-.18042-.18034l-.09627-.09635-.03587-.03581-1.092-1.09212-.09733-.09733-.09935-.09928-.03279-.03288-.0638-.0638-.06836-.06836-.21452-.21452-.04977-.04981-.13307-.13313-.13123-.13119-.10541-.10547-.02675-.02669-.00226-.00228c-.04354-.04329-.08705-.08691-.12988-.12988l-.04153-.04134-.09061-.09082-.21185-.21159-.05245-.05274-.08-.07975-.05215-.05241-.02585-.02571q-.12144-.12159-.23843-.23829l-.18251-.18261-.08179-.08171-.01211-.01237c-.04032-.04-.08066-.0804-.12-.11979l-.01711-.01725-.115-.11491-.12511-.12533-.007-.00683-.03506-.03516c-.079-.0791-.15466-.15462-.22925-.22917l-.052-.05208-.08012-.08008-.01471-.01465-.11743-.11751-.09816-.09831-.034-.03385-.212-.21191-.05232-.05241-.09729-.09733-.03487-.03483-.16836-.1683-.09593-.096-.11482-.11491-.01734-.01725-.08437-.08431-.04777-.04785-.2239-.224-.0404-.04036-.11062-.11068-.02152-.02148h0a30.16973,30.16973,0,0,0-21.33334-8.83659Z" style="fill:#378900"/><path d="M213.33333,234.66667V128h192L386.971,238.17385A21.33334,21.33334,0,0,1,365.928,256H234.66667A21.33334,21.33334,0,0,1,213.33333,234.66667Z" style="fill:#0a86e3"/><path d="M405.33333,128H330.66667a10.66666,10.66666,0,1,0,0,21.33333h49.48352l-5.17228,31.03321q-.04859.29149-.08077.58138-.06342.28467-.11207.57584l-8.857,53.14258-.00317.01563a11.76876,11.76876,0,0,0,8.10665,13.429,10.36137,10.36137,0,0,0,2.89465.419,9.54353,9.54353,0,0,0,8.30086-4.765,21.26038,21.26038,0,0,0,1.18246-3.12565l0-.00032q.08679-.29835.16524-.60059l.00183-.00716.02629-.10254.004-.016.00749-.02962.00562-.02246.01086-.04362.0057-.02279.0063-.02572.01042-.04264.005-.02051.00756-.03157.00476-.01953.01071-.04492.00464-.01954.00842-.0358.00358-.0153.01127-.04851.00342-.01464.01009-.044.00187-.00814.01156-.0511.003-.013.01111-.04981.00061-.0026.01184-.05371.00223-.0101.02332-.10774.00212-.01009.02315-.10971.0015-.00748.02291-.112.00126-.00619.02263-.1136.00089-.00456.01107-.057.00057-.00293.0105-.055.00081-.00423.01066-.05664.001-.00521.01025-.05534.00033-.00163.0105-.05729.00089-.00521.00989-.055.00049-.0026.00968-.055.00175-.00976.009-.05208.00061-.00326.00911-.05339.0022-.013.009-.05338h0s.03434-.20638.09875-.59245l.00135-.00814.11662-.69987.00411-.02441.03462-.208.00012-.00065.01909-.11458.00041-.00228.00927-.05567.00155-.00911.00736-.04427.00318-.01921.017-.10221.0028-.01693.00887-.05273.00269-.01628.00606-.03646.00419-.02506.00314-.01888.001-.00586.00407-.02442.00594-.03548.00069-.00423.00692-.04167.00387-.02311.00012-.001.00395-.02344.06738-.4043.00179-.01074.00513-.03093.00089-.0052.00488-.0293.0007-.00423.00512-.0306.002-.01172.005-.02995.00012-.00065.00537-.03223.00183-.01074.02308-.13867.00329-.01986.0496-.29752.00049-.00293,8.31889-49.91341q.04461-.27345.07475-.54493.06086-.27294.10815-.55273L405.33333,128Z" style="fill:#006ce2"/><path d="M213.33333,234.66667V128H320L301.63769,238.17385A21.33333,21.33333,0,0,1,280.59462,256h-45.928A21.33334,21.33334,0,0,1,213.33333,234.66667Z" style="fill:#b8ddfb"/><path d="M320,128H224a10.66666,10.66666,0,1,0,0,21.33333h70.81685l-5.17228,31.03321q-.04858.29149-.08077.58138-.06341.28467-.11206.57584l-8.857,53.14258-.00318.01563a11.76877,11.76877,0,0,0,8.10665,13.429,10.36144,10.36144,0,0,0,2.89466.419,9.54354,9.54354,0,0,0,8.30086-4.765,21.26147,21.26147,0,0,0,1.18245-3.12565l0-.00032q.08679-.29835.16525-.60059l.00183-.00716.02628-.10254.004-.016.00749-.02962.00561-.02246.01087-.04362.00569-.02279.00631-.02572.01042-.04264.005-.02051.00757-.03157.00476-.01953.0107-.04492.00464-.01954.00842-.0358.00359-.0153.01127-.04851.00341-.01464.0101-.044.00187-.00814.01155-.0511.003-.013.01111-.04981.00061-.0026.01184-.05371.00224-.0101.02332-.10774.00211-.01009.02316-.10971.0015-.00748.02291-.112.00126-.00619.02262-.1136.0009-.00456.01107-.057.00057-.00293.0105-.055.00081-.00423.01066-.05664.001-.00521.01025-.05534.00033-.00163.01049-.05729.0009-.00521.00989-.055.00048-.0026.00969-.055.00175-.00976.009-.05208.00061-.00326.00912-.05339.00219-.013.009-.05338h0s.03434-.20638.09875-.59245l.00134-.00814.11662-.69987.00411-.02441.03463-.208.00012-.00065.01908-.11458.00041-.00228.00928-.05567.00155-.00911.00736-.04427.00317-.01921.017-.10221.00281-.01693.00887-.05273.00269-.01628.00606-.03646.00419-.02506.00313-.01888.001-.00586.00407-.02442.00594-.03548.00069-.00423.00692-.04167.00386-.02311.00013-.001.00394-.02344.06739-.4043.00179-.01074.00512-.03093.0009-.0052.00488-.0293.00069-.00423.00513-.0306.002-.01172.005-.02995.00012-.00065.00537-.03223.00183-.01074.02307-.13867.0033-.01986.0496-.29752.00049-.00293,8.31889-49.91341q.04461-.27345.07474-.54493.06086-.27294.10816-.55273L320,128Z" style="fill:#99cefa"/><rect x="170.66667" y="85.33333" width="255.99998" height="42.66667" rx="21.33331" ry="21.33331" style="fill:#ffd432"/><path d="M405.33333,128a21.33331,21.33331,0,0,0,21.33332-21.33331v0a21.33332,21.33332,0,0,0-21.33332-21.33332H320a21.33331,21.33331,0,0,1,21.33331,21.33332v0A21.33331,21.33331,0,0,1,320,128Z" style="fill:#df8d00"/><rect x="149.33333" y="128" width="64" height="21.33333" rx="10.66666" ry="10.66666" style="fill:#4da900"/><rect x="128" y="234.66667" width="85.33333" height="21.33333" rx="10.66666" ry="10.66666" style="fill:#378900"/><rect x="213.33333" y="256" width="42.66667" height="21.33333" rx="10.66666" ry="10.66666" style="fill:#378900"/><rect x="192" y="85.33333" width="128" height="21.33333" rx="10.66666" ry="10.66666" style="fill:#ffef7d"/><rect x="341.33333" y="85.33333" width="64" height="21.33333" rx="10.66666" ry="10.66666" style="fill:#f4ac03"/><rect x="42.66667" y="213.33333" width="42.66667" height="21.33333" rx="10.66666" ry="10.66666" style="fill:#3d180b"/><rect x="42.66667" y="256" width="42.66667" height="21.33333" rx="10.66666" ry="10.66666" style="fill:#3d180b"/><rect x="42.66667" y="192" width="42.66667" height="21.33333" rx="10.66666" ry="10.66666" style="fill:#9fe27c"/><rect x="42.66667" y="234.66667" width="42.66667" height="21.33333" rx="10.66666" ry="10.66666" style="fill:#9fe27c"/><rect x="298.66667" y="341.33333" width="42.66667" height="64" rx="21.33331" ry="21.33331" style="fill:#6ec030"/><circle cx="320" cy="362.66667" r="21.33333" style="fill:#9fe27c"/><circle cx="85.33333" cy="362.66667" r="64" style="fill:#5b2c06"/><path d="M85.33333,298.66667h-.1214l-.05962.00032h-.03772l-.07021.00033-.06886.00032h-.01538q-.2101.00147-.41985.00391H84.523l-.03819.00065c-.19142.0026-.38073.00586-.57173.01009a10.55076,10.55076,0,0,0-10.22813,10.75586,10.783,10.783,0,0,0,10.76021,10.56934c.0323,0,.06545,0,.09781-.00033L85.33333,320q.49726-.00439.98274-.05339.48252.07032.97843.09734l.7855.04231c.11955.00651.238.01075.35682.01335.14116.01693.28333.03157.42633.043a42.25973,42.25973,0,0,1,13.68938,3.46907,10.66679,10.66679,0,0,0,8.636-19.50748l-.03848-.01693-.02379-.01042-.06205-.02734-.02255-.01009-.06457-.02832-.02085-.00912c-.05574-.02441-.11118-.0485-.167-.07259l-.025-.01107-.05952-.02571-.02682-.0114-.058-.02506-.02727-.01172-.0641-.02767-.01929-.00814-.08483-.03613-.00127-.00065-.08151-.03483-.02882-.01205-.05406-.02311-.03448-.01432-.05061-.02148-.0324-.01368-.05519-.02311-.02842-.012-.16787-.07-.0208-.00879-.06394-.02637-.02693-.01139-.05757-.02376-.02869-.01172-.05951-.02441-.02549-.01042-.06835-.028-.01614-.00683-.08619-.03483-.00937-.00391-.07547-.0306-.02214-.00911-.06363-.02572-.02484-.01009-.0608-.02441-.02645-.01042-.06977-.028-.01355-.00553c-.05853-.02344-.11537-.0459-.174-.069l-.01761-.00716-.06809-.027-.02234-.00879-.06611-.026-.02127-.00814-.0686-.027-.01773-.00683c-.05876-.02311-.11615-.04525-.175-.068l-.01195-.00455-.07477-.029-.01805-.00684-.06851-.02637-.02163-.00846-.07289-.028-.01174-.00423-.08772-.03353-.00055-.00032-.09073-.03418-.00305-.0013-.08271-.03125-.0171-.00651-.0719-.027-.01759-.00651-.07223-.027-.01547-.00586-.26712-.099-.01025-.00358-.07657-.02832-.01751-.00619-.07649-.028-.00946-.00358c-.09006-.03288-.18246-.06608-.2727-.09863l-.00071-.00033c-.03072-.01074-.05919-.02116-.08993-.03223l-.00414-.0013-.087-.03092-.00481-.002c-.30763-.10937-.61384-.21549-.92362-.32031l-.00113-.00032a63.69283,63.69283,0,0,0-15.31714-3.15365q-.23583-.01806-.46973-.02572-.19977-.02293-.402-.03873c-.55155-.03679-1.102-.06673-1.65731-.08952-.11583-.00358-.231-.00553-.346-.00553q-.44265,0-.87739.03613a10.69558,10.69558,0,0,0-1.22043-.08529c-.0776,0-.15833-.00032-.236-.00032ZM51.592,310.6888a10.622,10.622,0,0,0-6.7463,2.40983,64.395,64.395,0,0,0-5.73894,5.30632l-.0062.00651-.05289.055-.00435.00456q-.141.14794-.28106.29622l-.00357.00391-.05077.054-.009.00944-.048.0511-.01173.01237-.04806.05143-.00854.00912-.05072.05436-.00053.00065q-.10959.11719-.21889.23568l-.0105.01139-.04617.05013-.01283.01367-.04521.04916-.014.0153-.04514.04915-.01091.012c-.0697.07584-.13953.15266-.20886.22916l-.00923.01009-.04293.0472-.01741.01953-.04086.04493-.01791.01985-.04047.04493-.01748.01953-.042.04687-.01293.01432-.14133.15821-.01639.01823-.03954.04459-.01871.02084-.03806.043-.02212.02506-.036.04069-.02248.02539-.03606.041-.02292.02571-.036.041-.01827.02083-.07447.085-.01989.02279-.03556.04069-.0225.02572-.03569.041-.02314.02669-.03441.03939-.023.02669-.0373.043-.01807.02084-.039.04524-.01741.02019c-.04475.05175-.08931.10384-.1339.1556l-.01639.0192-.03732.04362-.02122.02507-.03656.04264-.01991.02344-.03666.043-.02118.02506-.03712.04362-.01661.01986-.04054.04785-.00911.01074-.08884.10547-.011.013-.03859.0459-.01754.02083-.0384.0459-.018.02148-.03946.04721-.016.0192-.03923.0472-.017.02051-.0405.0485-.00856.01042c-.04875.05892-.09739.11751-.14593.17676l-.00737.00879-.04045.04915-.01552.01888-.03855.0472-.01776.02148-.03826.04688-.01616.01986-.03921.04785-.01585.01953-.04024.04948-.005.00618c-.04761.0586-.09433.11654-.14173.17513l-.01375.01726-.03892.04817-.01628.02019-.038.04752-.01673.02083-.03847.04818-.01575.01953-.03922.04916-.01107.014c-.06357.07976-.12735.16016-.19054.24024l-.01081.01367-.0427.054-.0099.01269-.0432.055-.01047.01334-.04321.055-.00737.00944c-.0658.084-.13181.16895-.1972.25326l-.00288.00391-.04294.05533-.01117.01465-.04206.05436-.01.013-.04373.057-.00613.00781q-.14875.19386-.29644.389l-.00489.00651-.04711.0625-.00242.00326q-.1741.231-.34609.46354l-.0035.00456q-1.58622,2.14452-2.99445,4.42252c-.09186.14877-.17939.29818-.26311.44955q-.11566.17432-.22554.35416c-.03818.06413-.07588.12728-.11384.19141l-.00508.00846q-.10281.17334-.20449.34733l-.026.0446-.013.02246-.04078.07-.00086.0013q-.21536.37061-.42627.74512A10.54867,10.54867,0,0,0,33.57141,345.584a10.778,10.778,0,0,0,14.62912-3.9541l.39232-.6761q.08937-.15381.17286-.30925.11919-.17676.23227-.3597A42.86576,42.86576,0,0,1,58.35072,329.613,10.66693,10.66693,0,0,0,51.592,310.6888ZM32.6108,360.01921a10.67624,10.67624,0,0,0-10.56088,12.25618q.38022,2.52588.95451,4.98372l.00089.00391q.05659.24267.11514.485l.00164.00683.01889.0778.0004.00163q.049.20166.09934.403l.00142.00586.01931.07683.0013.00521q.06077.2417.12326.48209l.00125.00488.02007.07715.00136.00521q.06292.24072.12783.48145l.00069.00228q.06508.24169.13208.48209l.00049.002.02224.07976h.00007a63.57561,63.57561,0,0,0,4.97926,12.50814q.1219.23144.25318.4541c.06088.12532.12446.25032.19074.374.03572.06543.07316.13379.1091.19922l.00335.00586q.07027.12792.14113.25521l.00141.0026.02843.05111.01835.03288.01973.03515c.02851.05111.05865.10482.0873.1556l.00441.00781.044.07813.00139.00228c.04755.08431.09417.16634.14208.25032l.001.00163c.06889.12077.13693.23893.20657.35905a10.54614,10.54614,0,0,0,14.357,3.77376A10.78544,10.78544,0,0,0,48.3,383.8776l-.38315-.68131q-.087-.15431-.17827-.305c-.06125-.12858-.12522-.25586-.19208-.38282a42.17878,42.17878,0,0,1-4.40106-13.40918,10.66843,10.66843,0,0,0-10.53459-9.08007ZM65.37425,401.472a10.66847,10.66847,0,0,0-3.99868,20.55957q1.13454.45849,2.28986.874l.00225.001.07007.02506.01276.00456.06488.02311.01744.00618c.09366.03353.18839.06706.28225.09994l.02125.00749.05649.01985.02705.00944.05589.01953.02661.00912.05753.02018.01876.00651.19194.06608.03234.01107.05127.01758.03282.01107.05023.01692.03509.01205.05058.01725.03338.01107.06171.02083.06742.02279.03679.01237.05134.01692.03743.0127.04741.01563.04028.01334.04865.01595.037.01237.06011.01986.02485.00814.08517.02767.02747.00911.059.01921.034.01106.05559.01791.02992.00976.06222.01986.02559.00846.07687.02442.00926.00293.09121.02929.00532.00163.08421.02669.01692.00521.07078.02246.02361.00749.06976.02181.01836.00553.08165.02572.00684.002c.06262.01953.12209.03809.1848.0573l.00637.00195.08487.026.01043.00326.0814.02473.01163.00359c.12166.03678.24729.07487.36925.111l.00774.00228.08937.02669.00119.00033a63.56936,63.56936,0,0,0,7.84,1.78841l.00368.00065.09546.0153.00258.00032c.09906.01595.19712.03158.29633.04688l.00013.00032c.031.00456.06159.00944.09261.01433l.01556.00227.07791.012.02163.00325.08059.01237.01242.00163.1919.029.01683.00228.07571.01107.02626.00391.07026.01041.02479.00358.07216.01042.02275.00325.08862.01237.00547.001.09211.013.032.00423.06011.00847.0379.00521.05431.00748.041.00554.05319.00716.03852.00521.05788.00781.059.00814.063.00813.04813.00652.04214.00553.05215.00651.03828.00521.05582.00716.02939.00358.06348.00814.0132.00163q.1158.01464.23169.029l.01108.0013c.024.00293.04852.00618.07255.00879l.015.00195.07383.00879.01075.0013q2.22043.26661,4.4856.37956c.17417.00846.34647.013.519.013.135.01139.27123.01986.40772.026q.82779.02929,1.66079.03744a10.55109,10.55109,0,0,0,10.56342-10.43,10.7832,10.7832,0,0,0-10.52138-10.90429l-.78848-.01758c-.0816-.00195-.16221-.00293-.24343-.00293-.03828,0-.07645.00032-.11464.00065-.142-.01269-.28442-.02246-.42807-.02962A42.35819,42.35819,0,0,1,69.366,402.2513a10.634,10.634,0,0,0-3.99172-.77929Zm65.554-21.6543a10.776,10.776,0,0,0-9.1544,5.05957l-.41429.66374q-.0948.15184-.18389.30566-.12413.17237-.24256.35091a42.89258,42.89258,0,0,1-9.68875,10.37109A10.66662,10.66662,0,0,0,124.192,413.52344q.55825-.42676,1.10558-.86524l.00036-.00032.07308-.0586.00286-.00227.07189-.05762.00252-.00228c.07483-.06022.14754-.11882.22208-.17969l.00509-.0039.065-.05306.01432-.01172.05734-.04655.01686-.014.05388-.04395.01824-.015.05624-.04622.01525-.0127.14106-.11621.01848-.0153.05169-.043.02366-.01953.046-.03841.025-.02083.045-.03744.02725-.02278.04247-.03549.02673-.02246.04535-.03808.02486-.02084.06677-.05631.0273-.02279.0399-.03385.0348-.0293.03421-.029.03492-.02962.03315-.02832.03507-.02995.03372-.02865.03561-.03027.02913-.02507.04-.03418.01962-.0166.10757-.09245.00142-.0013.04924-.04231.017-.01465.0469-.04069.0197-.01693.0466-.04037.02023-.01757.0439-.03809.02338-.02051.04564-.03971.01119-.00977q.08925-.07763.17815-.15592l.00083-.00065.05557-.04883.00915-.00814.05264-.04655.0131-.01139.052-.04622.011-.00977.05477-.0485.00491-.00423q.15324-.13623.30563-.27344l.00183-.00163.05894-.05306.00445-.00391a64.33488,64.33488,0,0,0,10.52356-12.21386c.09637-.14519.189-.29265.27729-.44076q.1221-.17187.23839-.34961c.04014-.0625.07726-.12044.1172-.18327l.00648-.01009q.16166-.25391.321-.50911l.03908-.06283.00276-.00423c.12949-.20833.25958-.42025.38674-.62988a10.54835,10.54835,0,0,0-3.58068-14.40267,10.68568,10.68568,0,0,0-5.59355-1.57552Zm1.55817-52.89486a10.55176,10.55176,0,0,0-4.97475,1.24968,10.78555,10.78555,0,0,0-4.48533,14.47526l.361.69238q.08223.15771.16893.31185.08529.19434.179.387a42.20463,42.20463,0,0,1,3.96737,13.54623,10.66859,10.66859,0,0,0,10.57975,9.41764,10.77611,10.77611,0,0,0,1.26366-.07487,10.66668,10.66668,0,0,0,9.34592-11.81771,63.5501,63.5501,0,0,0-5.98484-20.42806q-.109-.22266-.22674-.4375c-.05655-.12663-.11615-.25358-.17809-.3789-.03458-.06836-.06825-.13477-.10307-.20313l-.00284-.00553-.07537-.14779q-.28594-.55761-.58225-1.10872a10.54808,10.54808,0,0,0-9.25232-5.47787Z" style="fill:#3d180b"/><circle cx="85.33333" cy="362.66667" r="21.33333" style="fill:#fff8c6"/></g></svg>