<!-- Generator: Adobe Illustrator 22.1.0, SVG Export Plug-In . SVG Version: 6.00 Build 0)  -->
<svg enable-background="new 0 0 256 256" version="1.1" viewBox="0 0 256 256" xmlns="http://www.w3.org/2000/svg">
 <style type="text/css">.st0{fill:#231F20;}
	.st1{fill:#FFEFE4;}
	.st2{fill:#69EBFC;}
	.st3{fill:#5FD4E3;}
	.st4{fill:#A1F1FC;}
	.st5{fill:#D476E2;}
	.st6{fill:#B665C2;}
	.st7{fill:#EA82FA;}
	.st8{fill:#FFF7F2;}
	.st9{fill:#FF8354;}
	.st10{fill:#FFA172;}
	.st11{fill:#6770E6;}
	.st12{fill:#5861C7;}
	.st13{fill:#E0734A;}
	.st14{fill:#EDD4C2;}
	.st15{fill:#CC6944;}
	.st16{fill:#858EFF;}
	.st17{fill:#C76642;}
	.st18{fill:#FFFFFF;}
	.st19{fill:#FFDEC7;}
	.st20{fill:#4E56B0;}
	.st21{fill:#94529E;}
	.st22{fill:#41B6C5;}
	.st23{fill:#9847A4;}
	.st24{fill:#C2552C;}
	.st25{fill:#CFB6A4;}</style>
 <g transform="translate(0 -19.741)">
  <path class="st11" d="m197 70h-138c-8.837 0-16 7.163-16 16v14h170v-14c0-8.837-7.163-16-16-16z"/>
  <path class="st16" d="m197 70h-138c-8.837 0-16 7.164-16 16v6c0-8.836 7.163-16 16-16h138c8.837 0 16 7.164 16 16v-6c0-8.836-7.163-16-16-16z"/>
  <path class="st12" d="m169 70h-12v-4c0-5.514-4.486-10-10-10h-38c-5.514 0-10 4.486-10 10v4h-12v-4c0-12.131 9.869-22 22-22h38c12.131 0 22 9.869 22 22z"/>
  <path class="st11" d="m147 44h-38c-12.131 0-22 9.869-22 22v4h0.095c1.014-11.197 10.449-20 21.905-20h38c11.456 0 20.891 8.803 21.905 20h0.095v-4c0-12.131-9.869-22-22-22z"/>
  <path class="st16" d="m215 116h-174c-4.418 0-8-3.582-8-8s3.582-8 8-8h174c4.418 0 8 3.582 8 8s-3.582 8-8 8z"/>
  <path class="st11" d="m213 116h-170l18.038 126.26c1.126 7.882 7.876 13.737 15.839 13.737h102.25c7.962 0 14.713-5.855 15.839-13.737z"/>
  <path class="st12" d="m179.94 250h-103.89c-7.23 0-13.464-4.682-15.527-11.303l0.509 3.565c1.126 7.883 7.876 13.738 15.839 13.738h102.25c7.962 0 14.713-5.855 15.839-13.737l0.509-3.565c-2.063 6.62-8.297 11.302-15.528 11.302z"/>
  <path class="st12" d="m82.665 136h-0.93c-4.141 0-7.377 3.576-6.965 7.697l8.6 86c0.358 3.578 3.369 6.303 6.965 6.303h0.93c4.141 0 7.377-3.576 6.965-7.697l-8.6-86c-0.357-3.578-3.369-6.303-6.965-6.303z"/>
  <path class="st12" d="m165.16 236h-0.93c-4.141 0-7.377-3.576-6.965-7.697l8.6-86c0.358-3.578 3.369-6.303 6.965-6.303h0.93c4.141 0 7.377 3.576 6.965 7.697l-8.6 86c-0.357 3.578-3.369 6.303-6.965 6.303z"/>
  <path class="st12" d="m128.5 136h-1c-3.866 0-7 3.134-7 7v86c0 3.866 3.134 7 7 7h1c3.866 0 7-3.134 7-7v-86c0-3.866-3.134-7-7-7z"/>
 </g>
</svg>
