<svg xmlns="http://www.w3.org/2000/svg" width="128" height="128" viewBox="0 0 128 128">
  <title>ROAD</title>
  <g>
    <rect x="46.374" y="19" width="35.752" height="90" fill="#ffad5a"/>
    <path d="M37,110.75A1.75,1.75,0,0,1,35.25,109V19a1.75,1.75,0,0,1,3.5,0v90A1.75,1.75,0,0,1,37,110.75Z" fill="#ffad5a"/>
    <path d="M91,110.75A1.75,1.75,0,0,1,89.25,109V19a1.75,1.75,0,0,1,3.5,0v90A1.75,1.75,0,0,1,91,110.75Z" fill="#ffad5a"/>
    <g>
      <path d="M64.25,26.75A1.75,1.75,0,0,1,62.5,25V19A1.75,1.75,0,0,1,66,19v6A1.75,1.75,0,0,1,64.25,26.75Z" fill="#fff8e3"/>
      <path d="M64.25,93.607a1.749,1.749,0,0,1-1.75-1.75V80.714a1.75,1.75,0,0,1,3.5,0V91.857A1.749,1.749,0,0,1,64.25,93.607Zm0-22.285a1.75,1.75,0,0,1-1.75-1.75V58.429a1.75,1.75,0,0,1,3.5,0V69.572A1.75,1.75,0,0,1,64.25,71.322Zm0-22.286a1.75,1.75,0,0,1-1.75-1.75V36.143a1.75,1.75,0,0,1,3.5,0V47.286A1.75,1.75,0,0,1,64.25,49.036Z" fill="#fff8e3"/>
      <path d="M64.25,110.75A1.75,1.75,0,0,1,62.5,109v-6a1.75,1.75,0,0,1,3.5,0v6A1.75,1.75,0,0,1,64.25,110.75Z" fill="#fff8e3"/>
    </g>
  </g>
</svg>
