<svg id="Tools" xmlns="http://www.w3.org/2000/svg" viewBox="0 0 48 48"><defs><style>.cls-1{fill:#dad7e5;}.cls-2{fill:#edebf2;}.cls-3{fill:#fc6;}.cls-4{fill:#ffde76;}.cls-5{fill:#f8834b;}.cls-6{fill:#919191;}</style></defs><title>Tools</title><path class="cls-1" d="M21,15.14A10.38,10.38,0,0,1,15.14,21,10.35,10.35,0,0,1,1.72,7.58L7,12.82a2.07,2.07,0,0,0,2.93,0l2.93-2.93a2.07,2.07,0,0,0,0-2.93L7.58,1.72A10.35,10.35,0,0,1,21,15.14Z"/><path class="cls-2" d="M21.57,13.09a10.42,10.42,0,0,1-1.89,2.59A10.25,10.25,0,0,1,16.14,18,10.36,10.36,0,0,1,2,7.87l5,5a2.07,2.07,0,0,0,2.93,0l2.93-2.93a2.06,2.06,0,0,0,.39-2.38A1.9,1.9,0,0,0,12.82,7L7.58,1.72a10.35,10.35,0,0,1,14,11.37Z"/><path class="cls-1" d="M47,42.55A4.16,4.16,0,0,1,42.85,47a4.18,4.18,0,0,1-2.93-1.22L15.14,21a10,10,0,0,0,2.55-1.45,9.06,9.06,0,0,0,1-.87A10.25,10.25,0,0,0,21,15.14l4.44,4.44,3,3L45.78,39.92A4.14,4.14,0,0,1,47,42.55Z"/><path class="cls-2" d="M47,42.55a1.51,1.51,0,0,1-.21.23,4.13,4.13,0,0,1-5.86,0L17.69,19.55a9.06,9.06,0,0,0,1-.87A10.25,10.25,0,0,0,21,15.14l4.44,4.44,3,3L45.78,39.92A4.14,4.14,0,0,1,47,42.55Z"/><polygon class="cls-1" points="47 3.98 44.02 8.46 41.03 9.95 38.05 6.97 38.72 5.64 39.54 3.98 44.02 1 47 3.98"/><path class="cls-2" d="M46.2,3.18,44.52,5.71a3.38,3.38,0,0,1-1.31,1.15h0a3.38,3.38,0,0,1-3.9-.63l-.59-.59L39.54,4,44,1Z"/><polygon class="cls-1" points="41.03 9.95 20.18 30.8 17.2 27.82 18.7 26.32 38.05 6.97 41.03 9.95"/><path class="cls-2" d="M39.53,8.45,21.66,26.32a2.09,2.09,0,0,1-3,0h0L38.05,7Z"/><polygon class="cls-3" points="22.42 33.04 18.69 35.28 12.72 29.31 13.47 28.06 14.96 25.58 21.17 31.79 22.42 33.04"/><path class="cls-4" d="M21.17,31.79h0a3.69,3.69,0,0,1-4.53-.56l-3.17-3.17L15,25.58Z"/><path class="cls-3" d="M18.69,35.28,8.2,45.76a4.22,4.22,0,0,1-6.92-4.48,4.15,4.15,0,0,1,1-1.48L12.72,29.31l4.47,4.47Z"/><path class="cls-4" d="M17.19,33.78l-9,9a4.21,4.21,0,0,1-6,0,4.15,4.15,0,0,1-1-1.48,4.15,4.15,0,0,1,1-1.48L12.72,29.31Z"/><path class="cls-5" d="M5.93,43.07a1,1,0,0,1-.71-.29,1,1,0,0,1,0-1.41L12,34.61A1,1,0,0,1,13.39,36L6.63,42.78A1,1,0,0,1,5.93,43.07Z"/><path class="cls-6" d="M43,44a1,1,0,0,1-1-1,.84.84,0,0,1,.08-.38.93.93,0,0,1,.21-.33l.15-.12.18-.1.18,0a.86.86,0,0,1,.39,0l.19,0a1.78,1.78,0,0,1,.33.22A1,1,0,0,1,44,43a1,1,0,0,1-.29.7A1,1,0,0,1,43,44Z"/></svg>