<svg version="1.1" viewBox="0 0 48 48" xmlns="http://www.w3.org/2000/svg">
 <defs>
  <style>.cls-1{fill:#fc6;}.cls-2{fill:#ffde76;}</style>
 </defs>
 <title>Wheat cultivation</title>
 <g id="Wheat_cultivation" transform="matrix(.88118 0 0 .88118 2.642 3.0625)" data-name="Wheat cultivation">
  <path class="cls-1" d="m2 47a1 1 0 0 1-0.71-1.71l28-28a1.0041 1.0041 0 0 1 1.42 1.42c-29.89 29.88-28.1 28.29-28.71 28.29z"/>
  <path class="cls-2" d="m27.9 37.07a10 10 0 0 1-14.14 0l-1.42-1.41a10 10 0 0 1 7.08-2.93c4.35 0 6.49 2.35 8.48 4.34z"/>
  <path class="cls-2" d="m15.27 28.58a10 10 0 0 1-2.93 7.08l-1.41-1.42a10 10 0 0 1 0-14.14c1.9 1.9 4.34 4 4.34 8.48z"/>
  <path class="cls-2" d="m32.14 32.83a10 10 0 0 1-5.65 2.83 10 10 0 0 0-14.15 0 10 10 0 0 0 0-14.15 10 10 0 0 1 2.83-5.65l1.42 1.41a10 10 0 0 1 0 14.13 10 10 0 0 1 14.13 0z"/>
  <path class="cls-2" d="m36.5 15.76a10 10 0 0 0-7.19 2.93 10 10 0 0 0 2.93-7.19 8 8 0 0 1 9.76-5.5 8 8 0 0 1-5.5 9.76z"/>
  <path class="cls-1" d="m27.89 34.24a12 12 0 0 0-10.82-3.24 12 12 0 0 0-3.28-10.82l-0.83-0.83a10.19 10.19 0 0 0-0.59 2.23 10 10 0 0 1 0 14.15 10 10 0 0 1 14.15 0 10.19 10.19 0 0 0 2.23-0.59z"/>
  <path class="cls-2" d="m36.38 28.59a9.91 9.91 0 0 1-5.65 2.82 10 10 0 0 0-14.14 0 10 10 0 0 0 2.92-7.07 9.75 9.75 0 0 0-2.92-7.07 9.91 9.91 0 0 1 2.82-5.65c1.73 1.72 5 4.54 4.24 9.89a9.59 9.59 0 0 1-2.37 5.18c-0.58 0.66-0.63 0.61 0 0a10 10 0 0 1 13.72 0.47z"/>
  <path class="cls-2" d="m40.63 24.34a10.07 10.07 0 0 1-5.63 2.83 10 10 0 0 0-14.14 0 10 10 0 0 0 0-14.14 10.07 10.07 0 0 1 2.83-5.66l1.41 1.42a10 10 0 0 1 0.45 13.65c-0.59 0.67-0.64 0.62 0 0a10 10 0 0 1 13.65 0.45z"/>
  <path class="cls-1" d="m33 30.82a10.09 10.09 0 0 1-2.25 0.59 10 10 0 0 0-14.13 0 10 10 0 0 0 0-14.13 9.62 9.62 0 0 1 0.56-2.28l0.95 1a12 12 0 0 1 3.27 10c0 0.1-0.13 0.71-0.13 0.75s0.63-0.13 0.76-0.13a12 12 0 0 1 10 3.27z"/>
  <path class="cls-1" d="m37.2 26.58a9.08 9.08 0 0 1-2.24 0.58 10 10 0 0 0-14.13 0 10 10 0 0 0 0-14.13 9.25 9.25 0 0 1 0.58-2.24c3.19 3.15 4.87 6.44 4.22 11-0.08 0.6-0.12 0.58-0.12 0.68a2.9 2.9 0 0 1 0.68-0.12c4.61-0.65 7.81 1.05 11.01 4.23z"/>
  <path class="cls-1" d="m39.47 14.16a7 7 0 0 1-3.09 1.6 10 10 0 0 0-7.07 2.93 10 10 0 0 0 2.93-7.07 7.14 7.14 0 0 1 1.6-3.09 12.08 12.08 0 0 1 0.4 3.09 2 2 0 0 0 2.06 2.14 12.24 12.24 0 0 1 3.17 0.4z"/>
  <path class="cls-2" d="m44.87 20.1a10.07 10.07 0 0 1-5.66 2.83c0-0.26-2.88-2.93-7.07-2.93a10 10 0 0 0-7.07 2.93 10 10 0 0 0 2.93-7.07 10.11 10.11 0 0 0-2.93-7.07 10.07 10.07 0 0 1 2.83-5.66c1.85 1.87 4.29 3.94 4.34 8.37a10 10 0 0 1-2.47 6.71c-0.61 0.65-0.63 0.63 0 0a10 10 0 0 1 6.71-2.47c4.32 0.07 6.43 2.4 8.39 4.36z"/>
  <path class="cls-1" d="m39.21 22.93c0-0.26-2.88-2.93-7.07-2.93a10 10 0 0 0-7.07 2.93 10 10 0 0 0 2.93-7.07 10.11 10.11 0 0 0-2.93-7.07 9.76 9.76 0 0 1 0.6-2.24c0.87 0.88 0.82 0.82 0.83 0.83a11.94 11.94 0 0 1 3.5 8.48c0 3.4-1.28 2.14 2.14 2.14 3.58 0 7.12 1.78 8.6 3.63l0.71 0.7a9.76 9.76 0 0 1-2.24 0.6z"/>
  <path class="cls-2" d="m28.76 4.62a1 1 0 0 1-0.76-1.7l1.59-1.61a1.0116 1.0116 0 0 1 1.47 1.39c-1.69 1.73-1.76 1.92-2.3 1.92z"/>
  <path class="cls-2" d="m44.18 20.37a1 1 0 0 1-0.7-1.71l1.82-1.79a1.0006 1.0006 0 0 1 1.4 1.43c-1.96 1.93-1.98 2.07-2.52 2.07z"/>
  <path class="cls-2" d="m41 8a1 1 0 0 1-0.71-1.71l5-5a1.0041 1.0041 0 0 1 1.42 1.42c-5.29 5.29-5.08 5.29-5.71 5.29z"/>
 </g>
</svg>
