<?xml version="1.0" encoding="utf-8"?>
<!-- Generator: Adobe Illustrator 21.1.0, SVG Export Plug-In . SVG Version: 6.00 Build 0)  -->
<svg version="1.1" id="Icon_Set" xmlns="http://www.w3.org/2000/svg" xmlns:xlink="http://www.w3.org/1999/xlink" x="0px" y="0px"
	 viewBox="0 0 512 512" style="enable-background:new 0 0 512 512;" xml:space="preserve">
<style type="text/css">
	.st0{fill:#FFFFFF;}
	.st1{fill:#7DAC51;}
	.st2{fill:#5B7C31;}
	.st3{fill:#463218;}
	.st4{fill:#FEFE71;}
	.st5{fill:#D6CD1E;}
	.st6{fill:#E56823;}
	.st7{fill:#FE8E46;}
	.st8{fill:none;stroke:#FFFFFF;stroke-width:10;stroke-miterlimit:10;}
	.st9{fill:none;stroke:#463218;stroke-width:14;stroke-linecap:round;stroke-linejoin:round;stroke-miterlimit:10;}
	.st10{fill:#FE8D47;}
	.st11{fill:#E56724;}
</style>
<g id="WINDMILL">
	<g>
		<g>
			<polygon class="st1" points="289.9,415.9 222.1,415.9 240.5,244.5 271.5,244.5 			"/>
		</g>
	</g>
	<g>
		<g>
			<polygon class="st2" points="240.5,244.5 222.1,415.9 246.6,415.9 265,244.5 			"/>
		</g>
	</g>
	<g>
		<g>
			<path class="st3" d="M289.9,422.9h-67.7c-2,0-3.9-0.8-5.2-2.3s-2-3.4-1.8-5.4l18.4-171.3c0.4-3.6,3.4-6.3,7-6.3h31
				c3.6,0,6.6,2.7,7,6.3l18.4,171.3c0.2,2-0.4,3.9-1.8,5.4S291.9,422.9,289.9,422.9z M229.9,408.9h52.2l-16.9-157.3h-18.4
				L229.9,408.9z"/>
		</g>
	</g>
	<g>
		<g>
			<g>
				<polygon class="st7" points="277.1,234.3 249.5,206.7 339.9,96.1 387.7,143.9 				"/>
			</g>
		</g>
		<g>
			<g>
				<g>
					<polygon class="st7" points="234.9,221.3 262.5,249 172.1,359.5 124.3,311.8 					"/>
				</g>
			</g>
			<g>
				<g>
					<polygon class="st6" points="248.7,235.1 234.9,221.3 124.3,311.8 148.2,335.6 					"/>
				</g>
			</g>
		</g>
		<g>
			<g>
				<polygon class="st6" points="363.8,120 339.9,96.1 249.5,206.7 263.3,220.5 				"/>
			</g>
		</g>
	</g>
	<g>
		<g>
			<g>
				<path class="st3" d="M277.1,241.3c-1.8,0-3.6-0.7-5-2.1l-27.7-27.7c-2.5-2.5-2.7-6.6-0.5-9.4l90.5-110.5
					c1.3-1.5,3.1-2.5,5.1-2.6c2-0.1,3.9,0.6,5.3,2l47.7,47.7c1.4,1.4,2.1,3.3,2,5.3c-0.1,2-1,3.8-2.6,5.1l-110.5,90.5
					C280.3,240.8,278.7,241.3,277.1,241.3z M258.9,206.2l18.7,18.7l99.7-81.5l-36.8-36.8L258.9,206.2z"/>
			</g>
		</g>
		<g>
			<g>
				<path class="st3" d="M172.1,366.5c-1.9,0-3.6-0.7-4.9-2.1l-47.7-47.7c-1.4-1.4-2.1-3.3-2-5.3c0.1-2,1-3.8,2.6-5.1l110.5-90.5
					c2.8-2.3,6.8-2.1,9.4,0.5l27.7,27.7c2.5,2.5,2.7,6.6,0.5,9.4l-90.5,110.5c-1.3,1.5-3.1,2.5-5.1,2.6
					C172.3,366.5,172.2,366.5,172.1,366.5z M134.7,312.3l36.8,36.8l81.5-99.7l-18.7-18.7L134.7,312.3z"/>
			</g>
		</g>
	</g>
	<g>
		<g>
			<g>
				<g>
					<polygon class="st7" points="249.5,249 277.1,221.3 387.7,311.8 339.9,359.5 					"/>
				</g>
			</g>
			<g>
				<g>
					<polygon class="st7" points="262.5,206.7 234.9,234.3 124.3,143.9 172.1,96.1 					"/>
				</g>
			</g>
			<g>
				<g>
					<polygon class="st6" points="248.7,220.5 262.5,206.7 172.1,96.1 148.2,120 					"/>
				</g>
			</g>
		</g>
		<g>
			<g>
				<polygon class="st6" points="363.8,335.6 387.7,311.8 277.1,221.3 263.3,235.1 				"/>
			</g>
		</g>
	</g>
	<g>
		<g>
			<g>
				<path class="st3" d="M339.9,366.5c-0.1,0-0.2,0-0.3,0c-2-0.1-3.8-1-5.1-2.6l-90.5-110.5c-2.3-2.8-2.1-6.8,0.5-9.4l27.7-27.7
					c2.5-2.5,6.6-2.7,9.4-0.5l110.5,90.5c1.5,1.3,2.5,3.1,2.6,5.1c0.1,2-0.6,3.9-2,5.3l-47.7,47.7
					C343.6,365.8,341.8,366.5,339.9,366.5z M258.9,249.4l81.5,99.7l36.8-36.8l-99.7-81.5L258.9,249.4z"/>
			</g>
		</g>
		<g>
			<g>
				<path class="st3" d="M234.9,241.3c-1.6,0-3.1-0.5-4.4-1.6l-110.5-90.5c-1.5-1.3-2.5-3.1-2.6-5.1c-0.1-2,0.6-3.9,2-5.3l47.7-47.7
					c1.4-1.4,3.3-2.1,5.3-2c2,0.1,3.8,1,5.1,2.6l90.5,110.5c2.3,2.8,2.1,6.8-0.5,9.4l-27.7,27.7
					C238.4,240.6,236.7,241.3,234.9,241.3z M134.7,143.3l99.7,81.5l18.7-18.7l-81.5-99.7L134.7,143.3z"/>
			</g>
		</g>
	</g>
	<g>
		<g>
			
				<ellipse transform="matrix(0.7071 -0.7071 0.7071 0.7071 -86.1066 247.744)" class="st4" cx="256" cy="227.8" rx="52.7" ry="52.7"/>
		</g>
	</g>
	<g>
		<g>
			<path class="st3" d="M256,287.5c-15.3,0-30.6-5.8-42.2-17.5c-23.3-23.3-23.3-61.1,0-84.4c23.3-23.3,61.1-23.3,84.4,0
				c23.3,23.3,23.3,61.1,0,84.4C286.6,281.7,271.3,287.5,256,287.5z M256,182.1c-11.7,0-23.4,4.5-32.3,13.4
				c-17.8,17.8-17.8,46.8,0,64.6c17.8,17.8,46.8,17.8,64.6,0c17.8-17.8,17.8-46.8,0-64.6C279.4,186.6,267.7,182.1,256,182.1z"/>
		</g>
	</g>
	<g>
		<g>
			
				<ellipse transform="matrix(0.7071 -0.7071 0.7071 0.7071 -86.1066 247.744)" class="st0" cx="256" cy="227.8" rx="24.5" ry="24.5"/>
		</g>
	</g>
	<g>
		<g>
			<path class="st3" d="M318.6,422.9H193.4c-3.9,0-7-3.1-7-7s3.1-7,7-7h125.2c3.9,0,7,3.1,7,7S322.5,422.9,318.6,422.9z"/>
		</g>
	</g>
	<g>
		<g>
			<g>
				<g>
					
						<rect x="319.1" y="157.9" transform="matrix(0.7056 -0.7086 0.7086 0.7056 -17.2542 285.1328)" class="st0" width="30.8" height="10.8"/>
				</g>
			</g>
		</g>
		<g>
			<g>
				<g>
					
						<rect x="350.2" y="136.3" transform="matrix(0.7056 -0.7086 0.7086 0.7056 4.4129 294.0266)" class="st0" width="11.7" height="10.8"/>
				</g>
			</g>
		</g>
	</g>
	<g>
		<g>
			<path class="st3" d="M280.5,144c-0.6,0-1.2-0.1-1.8-0.2c-14.8-4-30.5-4-45.4,0c-3.7,1-7.6-1.2-8.6-4.9c-1-3.7,1.2-7.6,4.9-8.6
				c17.2-4.6,35.4-4.6,52.6,0c3.7,1,5.9,4.8,4.9,8.6C286.4,141.9,283.6,144,280.5,144z"/>
		</g>
	</g>
	<g>
		<g>
			<path class="st3" d="M165.2,259.3c-3.1,0-5.9-2.1-6.8-5.2c-4.8-17.9-4.6-36.7,0.5-54.5c1.1-3.7,5-5.9,8.7-4.8
				c3.7,1.1,5.9,5,4.8,8.7c-4.4,15.3-4.6,31.6-0.4,47c1,3.7-1.2,7.6-4.9,8.6C166.4,259.2,165.8,259.3,165.2,259.3z"/>
		</g>
	</g>
	<g>
		<g>
			<path class="st3" d="M346.8,259.3c-0.6,0-1.2-0.1-1.8-0.2c-3.7-1-5.9-4.8-4.9-8.6c4.1-15.4,4-31.6-0.4-47
				c-1.1-3.7,1.1-7.6,4.8-8.7c3.7-1.1,7.6,1.1,8.7,4.8c5.1,17.8,5.3,36.6,0.5,54.5C352.7,257.3,349.9,259.3,346.8,259.3z"/>
		</g>
	</g>
</g>
</svg>
