<svg xmlns="http://www.w3.org/2000/svg" viewBox="0 0 32 32"><title>sound high android app aplication phone</title><g id="sound_high_android_app_aplication_phone" data-name="sound high android app aplication phone"><path d="M22,13a1,1,0,0,0-1,1v4a1,1,0,0,0,2,0V14A1,1,0,0,0,22,13Z"/><path d="M26,11a1,1,0,0,0-1,1v8a1,1,0,0,0,2,0V12A1,1,0,0,0,26,11Z"/><path d="M30,9a1,1,0,0,0-1,1V22a1,1,0,0,0,2,0V10A1,1,0,0,0,30,9Z"/><path d="M17.39,1.21,8.66,8H4a3,3,0,0,0-3,3V21a3,3,0,0,0,3,3H8.66l8.73,6.79A1,1,0,0,0,19,30V2A1,1,0,0,0,17.39,1.21ZM3,21V11a1,1,0,0,1,1-1H8V22H4A1,1,0,0,1,3,21Zm14,7-7-5.44v-13L17,4Z"/></g></svg>